#!OML:ASF I:\golf\golf\golf 2\Subject 1\2002-09-07\Subject1.ASF
:FULLY-SPECIFIED
:DEGREES
489
root 0.46628 17.9669 -7.42128 6.2771 -3.69698 -1.14628
lowerback -3.82686 -0.48399 -5.43947
upperback -0.90425 -0.513122 5.31288
thorax 1.30931 -0.282831 8.63724
lowerneck -21.9107 1.25797 1.51649
upperneck 15.835 2.61607 -6.57093
head 8.6617 0.596728 -2.13453
rclavicle 9.49197e-015 -3.33958e-014
rhumerus -41.6569 -26.0148 -64.35
rradius 17.8072
rwrist 1.27814
rhand -17.2589 10.5254
rfingers 7.12502
rthumb 8.98549 -19.2633
lclavicle 9.49197e-015 -3.33958e-014
lhumerus -22.7838 -10.0548 89.827
lradius 35.3065
lwrist -19.6867
lhand -14.7953 24.0748
lfingers 7.12502
lthumb 11.3621 53.747
rfemur -30.176 -10.2949 24.3867
rtibia 26.8503
rfoot -0.918704 -2.66359
rtoes 10.6706
lfemur 1.18908 0.784488 -21.3711
ltibia 13.6339
lfoot -15.0349 -3.07622
ltoes -2.74559
490
root 0.485169 17.9684 -7.48955 6.31736 -3.77622 -1.05833
lowerback -3.75273 -0.435343 -5.45663
upperback -0.906446 -0.448479 5.2456
thorax 1.25269 -0.247715 8.57735
lowerneck -21.8737 1.29931 1.55794
upperneck 15.6795 2.65074 -6.57331
head 8.6042 0.619064 -2.1355
rclavicle -7.15625e-015 -2.38542e-014
rhumerus -41.671 -25.6053 -64.7449
rradius 18.0305
rwrist 0.942807
rhand -17.2704 10.4396
rfingers 7.12502
rthumb 8.97438 -19.3495
lclavicle -7.15625e-015 -2.38542e-014
lhumerus -23.0492 -9.85366 89.848
lradius 35.0551
lwrist -18.758
lhand -14.5629 25.1099
lfingers 7.12502
lthumb 11.5863 54.7696
rfemur -30.3177 -10.39 24.2625
rtibia 26.6074
rfoot -0.945326 -2.47178
rtoes 10.887
lfemur 0.883542 0.95813 -21.5483
ltibia 13.6589
lfoot -15.1256 -2.969
ltoes -3.10666
491
root 0.500825 17.9739 -7.55405 6.35847 -3.89535 -0.875433
lowerback -3.72156 -0.38518 -5.6101
upperback -0.91341 -0.374707 5.14854
thorax 1.21414 -0.208899 8.5658
lowerneck -21.8319 1.32646 1.61629
upperneck 15.5238 2.66317 -6.58771
head 8.54533 0.630734 -2.14644
rclavicle 5.01931e-015 -1.59028e-015
rhumerus -41.6933 -25.2551 -65.1063
rradius 18.2964
rwrist 0.626015
rhand -17.4667 10.5289
rfingers 7.12502
rthumb 8.78503 -19.2683
lclavicle 5.01931e-015 -1.59028e-015
lhumerus -23.3461 -9.54303 89.8184
lradius 34.8277
lwrist -18.2919
lhand -16.4068 22.969
lfingers 7.12502
lthumb 9.80774 52.7206
rfemur -30.4542 -10.4487 24.0318
rtibia 26.3671
rfoot -1.20901 -2.38492
rtoes 11.3905
lfemur 0.545113 1.09481 -21.8212
ltibia 13.7542
lfoot -15.0675 -2.93329
ltoes -2.78893
492
root 0.515487 17.9804 -7.61927 6.42115 -3.9895 -0.702111
lowerback -3.88073 -0.340627 -5.86522
upperback -0.807745 -0.299496 5.1168
thorax 1.4002 -0.18306 8.68627
lowerneck -21.9448 1.34656 1.65507
upperneck 15.3883 2.68551 -6.66113
head 8.52149 0.636135 -2.17371
rclavicle -1.49089e-015 4.77083e-015
rhumerus -41.4666 -25.0296 -65.4193
rradius 18.5376
rwrist 0.353371
rhand -17.7115 10.654
rfingers 7.12502
rthumb 8.54879 -19.1529
lclavicle -1.49089e-015 4.77083e-015
lhumerus -23.4211 -9.29913 89.8897
lradius 34.4851
lwrist -17.7243
lhand -15.1505 24.4595
lfingers 7.12502
lthumb 11.0196 54.1502
rfemur -30.6239 -10.5698 23.8427
rtibia 26.1522
rfoot -1.8738 -2.25979
rtoes 9.0809
lfemur 0.154465 1.16353 -22.0571
ltibia 13.8786
lfoot -14.9191 -3.04157
ltoes -2.15327
493
root 0.526581 17.9847 -7.6859 6.54855 -4.03551 -0.453363
lowerback -4.03805 -0.349283 -6.25125
upperback -0.737906 -0.288642 5.09493
thorax 1.56079 -0.188721 8.89185
lowerneck -22.1416 1.39779 1.66287
upperneck 15.3171 2.75542 -6.69326
head 8.53501 0.663709 -2.1762
rclavicle 1.78906e-015 -1.74931e-014
rhumerus -41.1604 -24.7865 -65.7193
rradius 18.7501
rwrist 0.0616065
rhand -17.89 10.4735
rfingers 7.12502
rthumb 8.37646 -19.3404
lclavicle 1.78906e-015 -1.74931e-014
lhumerus -23.4981 -8.9685 89.953
lradius 34.0169
lwrist -17.1149
lhand -15.5029 24.5518
lfingers 7.12502
lthumb 10.6797 54.2604
rfemur -30.879 -10.696 23.5979
rtibia 25.9749
rfoot -2.64318 -2.31759
rtoes 5.9555
lfemur -0.322661 1.14163 -22.3411
ltibia 14.0257
lfoot -14.8032 -3.22758
ltoes -1.45157
494
root 0.533042 17.9888 -7.75262 6.70909 -4.08912 -0.187973
lowerback -4.01996 -0.372645 -6.60958
upperback -0.818511 -0.303658 5.02158
thorax 1.47055 -0.190801 9.02223
lowerneck -22.3765 1.45289 1.63539
upperneck 15.4691 2.82712 -6.58851
head 8.6279 0.699972 -2.12814
rclavicle -1.90833e-014 -9.54166e-015
rhumerus -41.035 -24.4595 -66.0227
rradius 18.954
rwrist -0.309096
rhand -17.8795 10.4636
rfingers 7.12502
rthumb 8.38662 -19.3499
lclavicle -1.90833e-014 -9.54166e-015
lhumerus -23.7844 -8.51274 89.9425
lradius 33.4415
lwrist -16.5427
lhand -15.5661 24.6706
lfingers 7.12502
lthumb 10.6187 54.3823
rfemur -31.1913 -10.7197 23.3358
rtibia 25.8748
rfoot -3.48816 -2.54007
rtoes 2.81965
lfemur -0.839372 1.42145 -22.5928
ltibia 14.1366
lfoot -14.6732 -3.70106
ltoes -0.823856
495
root 0.539362 17.9917 -7.81539 6.78607 -4.20229 0.120867
lowerback -3.99581 -0.34617 -6.97848
upperback -0.881176 -0.251171 4.88291
thorax 1.38122 -0.158903 9.09111
lowerneck -22.1374 1.52058 1.99602
upperneck 15.1667 2.83711 -6.83027
head 8.4934 0.710536 -2.26478
rclavicle 8.69683e-015 7.15625e-015
rhumerus -41.0052 -24.1809 -66.3386
rradius 19.235
rwrist -0.706632
rhand -17.9153 10.6272
rfingers 7.12502
rthumb 8.35205 -19.1877
lclavicle 8.69683e-015 7.15625e-015
lhumerus -24.0663 -8.15574 89.9265
lradius 32.7579
lwrist -15.9083
lhand -15.6812 24.9543
lfingers 7.12502
lthumb 10.5077 54.6717
rfemur -31.4065 -10.6468 22.9832
rtibia 25.8425
rfoot -4.44893 -2.81485
rtoes -1.35748
lfemur -1.21871 1.84713 -22.8771
ltibia 14.1912
lfoot -14.5714 -4.34594
ltoes 0.243772
496
root 0.546312 17.9938 -7.872 6.79755 -4.38322 0.478208
lowerback -4.13598 -0.315471 -7.44144
upperback -0.843346 -0.180103 4.75947
thorax 1.48518 -0.131084 9.23449
lowerneck -22.0167 1.54703 2.16398
upperneck 14.9781 2.8242 -6.90311
head 8.41139 0.712524 -2.31653
rclavicle -8.89561e-015 7.15625e-015
rhumerus -40.8614 -24.0129 -66.6109
rradius 19.5546
rwrist -0.960631
rhand -18.1219 10.4792
rfingers 7.12502
rthumb 8.15272 -19.3435
lclavicle -8.89561e-015 7.15625e-015
lhumerus -24.2709 -7.84675 89.937
lradius 31.9878
lwrist -15.0406
lhand -15.7124 25.1885
lfingers 7.12502
lthumb 10.4776 54.9074
rfemur -31.5491 -10.5802 22.5667
rtibia 25.8485
rfoot -5.25091 -3.13159
rtoes -4.69431
lfemur -1.43913 1.977 -23.2516
ltibia 14.2147
lfoot -14.5085 -4.65513
ltoes 0.95775
497
root 0.551038 18.0042 -7.92773 6.91871 -4.48327 0.69382
lowerback -4.44403 -0.356715 -7.80003
upperback -0.780402 -0.19934 4.732
thorax 1.72923 -0.157383 9.41783
lowerneck -22.0809 1.59273 2.1646
upperneck 14.9131 2.88187 -6.90221
head 8.40317 0.739793 -2.30792
rclavicle -1.49585e-014 -1.59028e-014
rhumerus -40.5046 -23.8017 -66.8833
rradius 19.7798
rwrist -1.18468
rhand -18.2826 10.4023
rfingers 7.12502
rthumb 7.99762 -19.4264
lclavicle -1.49585e-014 -1.59028e-014
lhumerus -24.3594 -7.36698 89.9534
lradius 31.101
lwrist -14.0023
lhand -15.6872 25.6812
lfingers 7.12502
lthumb 10.5019 55.3988
rfemur -31.8028 -10.5694 22.3364
rtibia 25.885
rfoot -5.78359 -3.46612
rtoes -5.96759
lfemur -1.77672 2.10056 -23.4801
ltibia 14.2268
lfoot -14.4377 -4.87009
ltoes 1.36957
498
root 0.554829 18.0153 -7.98419 7.0731 -4.44205 0.702373
lowerback -4.7028 -0.440962 -7.96954
upperback -0.746266 -0.288882 4.81194
thorax 1.93151 -0.215922 9.60264
lowerneck -22.0686 1.6696 2.12475
upperneck 14.7584 2.99741 -6.93971
head 8.3549 0.790941 -2.29679
rclavicle 3.8266e-015 -2.62396e-014
rhumerus -40.0994 -23.3984 -67.1389
rradius 20.0015
rwrist -1.63695
rhand -18.334 10.5342
rfingers 7.12502
rthumb 7.94795 -19.2964
lclavicle 3.8266e-015 -2.62396e-014
lhumerus -24.4668 -6.87668 90.0713
lradius 30.2199
lwrist -12.6825
lhand -15.5995 26.5891
lfingers 7.12502
lthumb 10.5865 56.3025
rfemur -32.0495 -10.6211 22.3386
rtibia 25.9477
rfoot -6.21942 -3.78413
rtoes -5.93081
lfemur -2.19211 2.28438 -23.474
ltibia 14.2708
lfoot -14.3803 -5.13014
ltoes 1.62754
499
root 0.562286 18.0218 -8.0409 7.1658 -4.34841 0.621075
lowerback -4.67249 -0.520861 -7.9235
upperback -0.845598 -0.402202 4.87219
thorax 1.83575 -0.263933 9.63369
lowerneck -21.877 1.73896 2.1155
upperneck 14.6247 3.08471 -6.9249
head 8.28104 0.839441 -2.27667
rclavicle 1.19768e-014 3.33958e-014
rhumerus -39.9258 -23.0385 -67.2985
rradius 20.2997
rwrist -2.08447
rhand -18.2804 10.3241
rfingers 7.12502
rthumb 7.99967 -19.5045
lclavicle 1.19768e-014 3.33958e-014
lhumerus -24.8334 -6.56735 90.1749
lradius 29.3227
lwrist -11.0774
lhand -15.416 27.1671
lfingers 7.12502
lthumb 10.7635 56.8713
rfemur -32.1905 -10.7572 22.4477
rtibia 26.02
rfoot -6.50661 -4.07064
rtoes -6.35282
lfemur -2.58739 2.33837 -23.3873
ltibia 14.38
lfoot -14.2753 -5.29938
ltoes 1.74275
500
root 0.57352 18.03 -8.09749 7.2103 -4.35166 0.604632
lowerback -4.54034 -0.545751 -7.78222
upperback -0.977824 -0.450009 4.80192
thorax 1.63192 -0.271002 9.46831
lowerneck -21.7302 1.77718 2.19647
upperneck 14.6259 3.09466 -6.83414
head 8.25584 0.861437 -2.25749
rclavicle 1.4064e-014 -1.98785e-014
rhumerus -39.8592 -22.9324 -67.4617
rradius 20.5726
rwrist -2.27385
rhand -18.3417 9.92091
rfingers 7.12502
rthumb 7.94052 -19.9099
lclavicle 1.4064e-014 -1.98785e-014
lhumerus -25.2277 -6.33918 90.1214
lradius 28.3179
lwrist -9.55092
lhand -15.185 27.3253
lfingers 7.12502
lthumb 10.9863 57.0178
rfemur -32.2789 -10.8503 22.4714
rtibia 26.1123
rfoot -6.57773 -4.41224
rtoes -7.06005
lfemur -2.96076 2.34049 -23.4105
ltibia 14.5597
lfoot -14.2597 -5.30696
ltoes 1.25552
501
root 0.585396 18.043 -8.15341 7.21225 -4.44801 0.538839
lowerback -4.47193 -0.518981 -7.58882
upperback -1.03948 -0.426124 4.72111
thorax 1.52189 -0.249796 9.26597
lowerneck -21.7211 1.77198 2.24573
upperneck 14.8045 3.04986 -6.66707
head 8.30919 0.858009 -2.21644
rclavicle 3.8266e-015 1.82882e-014
rhumerus -39.7625 -22.8569 -67.6673
rradius 20.8398
rwrist -2.41987
rhand -18.5978 9.74217
rfingers 7.12502
rthumb 7.69333 -20.0979
lclavicle 3.8266e-015 1.82882e-014
lhumerus -25.5556 -6.0258 90.0121
lradius 27.3189
lwrist -8.24309
lhand -14.7818 27.492
lfingers 7.12502
lthumb 11.3752 57.1634
rfemur -32.2839 -10.7769 22.4984
rtibia 26.2364
rfoot -6.63532 -4.96343
rtoes -6.33346
lfemur -3.28804 2.18545 -23.4073
ltibia 14.8487
lfoot -14.3563 -5.02441
ltoes 0.673286
502
root 0.59726 18.0606 -8.20848 7.24346 -4.48915 0.248083
lowerback -4.41253 -0.510542 -7.18109
upperback -1.11462 -0.437245 4.72317
thorax 1.41 -0.245586 9.02608
lowerneck -21.7505 1.78201 2.29299
upperneck 15.0786 3.03873 -6.53692
head 8.40414 0.86427 -2.18398
rclavicle -4.96962e-017 -1.03368e-014
rhumerus -39.6957 -22.7985 -67.7802
rradius 21.154
rwrist -2.62766
rhand -18.489 9.7976
rfingers 7.12502
rthumb 7.79836 -20.0386
lclavicle -4.96962e-017 -1.03368e-014
lhumerus -25.9346 -5.68213 89.9127
lradius 26.3539
lwrist -6.9274
lhand -14.3876 27.6706
lfingers 7.12502
lthumb 11.7553 57.3207
rfemur -32.2496 -10.6493 22.7441
rtibia 26.4203
rfoot -6.72075 -5.68848
rtoes -5.31434
lfemur -3.64397 1.88643 -23.152
ltibia 15.2114
lfoot -14.4156 -4.64104
ltoes 0.634515
503
root 0.607255 18.0732 -8.26484 7.26621 -4.50873 -0.070099
lowerback -4.26651 -0.515382 -6.80132
upperback -1.19964 -0.469383 4.77617
thorax 1.24403 -0.250016 8.85755
lowerneck -21.7527 1.80861 2.372
upperneck 15.2384 3.05694 -6.52214
head 8.46028 0.876485 -2.19094
rclavicle 2.88238e-015 -1.35174e-014
rhumerus -39.5521 -22.5115 -67.9492
rradius 21.5241
rwrist -3.06217
rhand -18.1796 9.8972
rfingers 7.12502
rthumb 8.097 -19.9277
lclavicle 2.88238e-015 -1.35174e-014
lhumerus -26.255 -5.25221 89.8453
lradius 25.2927
lwrist -5.69754
lhand -14.1705 27.71
lfingers 7.12502
lthumb 11.9647 57.348
rfemur -32.2355 -10.5847 23.0382
rtibia 26.7016
rfoot -6.61401 -6.39578
rtoes -5.16402
lfemur -4.02309 1.66947 -22.8485
ltibia 15.6045
lfoot -14.4114 -4.36447
ltoes 0.938954
